<?xml version="1.0" encoding="utf-8"?>
<!-- Generator: Adobe Illustrator 19.0.0, SVG Export Plug-In . SVG Version: 6.00 Build 0)  -->
<svg version="1.1" id="图层_1" xmlns="http://www.w3.org/2000/svg" xmlns:xlink="http://www.w3.org/1999/xlink" x="0px" y="0px"
	 viewBox="0 0 512 512" style="enable-background:new 0 0 512 512;" xml:space="preserve">
<style type="text/css">
	.st0{fill-rule:evenodd;clip-rule:evenodd;fill:#25DF74;}
	.st1{fill-rule:evenodd;clip-rule:evenodd;fill:#8DE12B;}
	.st2{fill:#C6F095;}
	.st3{fill:#37B0E9;}
	.st4{fill:#8DE12B;}
	.st5{fill:#FFFFFF;}
</style>
<g id="椭圆_3_副本">
	<g id="XMLID_36_">
		<ellipse id="XMLID_37_" class="st0" cx="444.7" cy="90.6" rx="27" ry="26.9"/>
	</g>
</g>
<g id="椭圆_3_副本_2">
	<g id="XMLID_34_">
		<ellipse id="XMLID_35_" class="st1" cx="485.2" cy="157.9" rx="22.5" ry="22.5"/>
	</g>
</g>
<rect id="XMLID_18_" x="29.7" y="440.7" class="st2" width="418.3" height="45.6"/>
<g id="XMLID_14_">
	<path id="XMLID_17_" class="st3" d="M480.7,312.8c0-132.6-106.6-240.2-238.2-240.2C111,72.6,4.4,180.1,4.4,312.8
		c0,43.3,9,81.1,29.4,119.1l417.6,0C470.2,397,480.7,356.1,480.7,312.8z"/>
</g>
<g id="XMLID_11_">
	<path id="XMLID_13_" class="st4" d="M480.7,312.8c0-102.3-63.4-189.6-152.8-224.2v343.3h123.4C470.2,397,480.7,356.1,480.7,312.8z"
		/>
</g>
<g id="XMLID_4_">
	<path id="XMLID_5_" class="st5" d="M186.3,438.4l-96.8-0.1l5.5-19.1c20.5-3.8,41.3-24.7,62.6-62.9L311.8,97.1h16.1l8.9,290
		c-0.8,21.6,7.2,32.4,23.8,32.5l-5.5,19.1l-127.3-0.2l5.5-19.1l13.8,0c14.4,1.3,22.9-4.4,25.7-17.1c0.7-2.5,1.7-7.6,3.1-15.3
		c-0.6,5.1-0.7,3.8-0.3-3.8l-1.9-55.3l-77.5-0.1l-22.2,38.1c-4.6,6.4-9.4,16.5-14.4,30.5c-3.5,15.3,1.2,22.9,14.1,22.9l18,0
		L186.3,438.4z M273.2,301.2l-1.9-103L211,301.1L273.2,301.2z"/>
</g>
<circle id="XMLID_2_" class="st3" cx="372.8" cy="45.7" r="35.9"/>
</svg>
